ffmpeg started on 2026-01-13 at 11:41:10
Report written to "D:\Convert\FFMetrics\reports\ssim_report-6.txt"
Log level: 32
Command line:
ffmpeg -hide_banner -nostdin -r 24000/1001 -i "F:\\Convert\\files\\[DC] Make Heroine ga Oosugiru - 07_Telegram_HEVC(81).mkv" -r 24000/1001 -i "F:\\Convert\\files\\[DC] Make Heroine ga Oosugiru - 07_Telegram.mp4" -lavfi "[0:v]settb=AVTB,setpts=PTS-STARTPTS,format=pix_fmts=yuv420p10le,fps=24000/1001,scale=1920:1080:flags=lanczos:param0=3:out_range=limited:out_color_matrix=bt709:out_chroma_loc=left,setsar=1/1,setdar=(1920/1080)*(1/1),colorspace=format=yuv420p10:range=tv:primaries=bt709:trc=bt709:space=bt709:fast=0[main];[1:v]settb=AVTB,setpts=PTS-STARTPTS,format=pix_fmts=yuv420p,fps=24000/1001,scale=1920:1080:flags=lanczos:param0=3:out_range=limited:out_color_matrix=bt709:out_chroma_loc=left,setsar=1.000,setdar=1.778,colorspace=format=yuv420p:range=tv:primaries=bt709:trc=bt709:space=bt709:fast=0[ref];[main][ref]ssim=eof_action=endall:stats_file='D\\:/Convert/FFMetrics/logs/ssim_logfile-6.txt'" -f null -
Input #0, matroska,webm, from 'F:\Convert\files\[DC] Make Heroine ga Oosugiru - 07_Telegram_HEVC(81).mkv':
  Metadata:
    COMPATIBLE_BRANDS: isomiso2avc1mp41
    MAJOR_BRAND     : isom
    MINOR_VERSION   : 512
    ENCODER         : Lavf61.7.100
  Duration: 00:24:06.79, start: -0.021000, bitrate: 930 kb/s
  Stream #0:0: Video: hevc (Main 10), yuv420p10le(tv, bt709, progressive), 1920x1080 [SAR 1:1 DAR 16:9], 23.98 fps, 23.98 tbr, 1k tbn (default)
      Metadata:
        HANDLER_NAME    : VideoHandler
        VENDOR_ID       : [0][0][0][0]
        ENCODER         : Lavc61.19.100 libx265
        BPS             : 733751
        DURATION        : 00:24:06.569708333
        NUMBER_OF_FRAMES: 34683
        NUMBER_OF_BYTES : 132677755
        _STATISTICS_WRITING_APP: mkvpropedit v94.0 ('Initiate') 64-bit
        _STATISTICS_WRITING_DATE_UTC: 2026-01-11 16:06:40
        _STATISTICS_TAGS: BPS DURATION NUMBER_OF_FRAMES NUMBER_OF_BYTES
  Stream #0:1: Audio: aac (LC), 48000 Hz, stereo, fltp (default)
      Metadata:
        HANDLER_NAME    : SoundHandler
        VENDOR_ID       : [0][0][0][0]
        ENCODER         : Lavc61.19.100 aac
        BPS             : 193194
        DURATION        : 00:24:06.784000000
        NUMBER_OF_FRAMES: 67819
        NUMBER_OF_BYTES : 34938755
        _STATISTICS_WRITING_APP: mkvpropedit v94.0 ('Initiate') 64-bit
        _STATISTICS_WRITING_DATE_UTC: 2026-01-11 16:06:40
        _STATISTICS_TAGS: BPS DURATION NUMBER_OF_FRAMES NUMBER_OF_BYTES
Input #1, mov,mp4,m4a,3gp,3g2,mj2, from 'F:\Convert\files\[DC] Make Heroine ga Oosugiru - 07_Telegram.mp4':
  Metadata:
    major_brand     : isom
    minor_version   : 512
    compatible_brands: isomiso2avc1mp41
    encoder         : Lavf60.16.100
  Duration: 00:24:06.74, start: 0.000000, bitrate: 3764 kb/s
  Stream #1:0[0x1](und): Video: h264 (High) (avc1 / 0x31637661), yuv420p(tv, bt709, progressive), 1920x1080 [SAR 1:1 DAR 16:9], 3616 kb/s, 23.98 fps, 23.98 tbr, 24k tbn (default)
      Metadata:
        handler_name    : VideoHandler
        vendor_id       : [0][0][0][0]
        encoder         : Lavc60.31.102 h264_qsv
  Stream #1:1[0x2](und): Audio: aac (HE-AACv2) (mp4a / 0x6134706D), 48000 Hz, stereo, fltp, 144 kb/s (default)
      Metadata:
        handler_name    : SoundHandler
        vendor_id       : [0][0][0][0]
Stream mapping:
  Stream #0:0 (hevc) -> settb:default
  Stream #1:0 (h264) -> settb:default
  ssim:default -> Stream #0:0 (wrapped_avframe)
  Stream #0:1 -> #0:1 (aac (native) -> pcm_s16le (native))
Output #0, null, to 'pipe:':
  Metadata:
    COMPATIBLE_BRANDS: isomiso2avc1mp41
    MAJOR_BRAND     : isom
    MINOR_VERSION   : 512
    encoder         : Lavf61.7.100
  Stream #0:0: Video: wrapped_avframe, yuv420p10le(tv, bt709, progressive), 1920x1080 [SAR 1:1 DAR 16:9], q=2-31, 200 kb/s, 23.98 fps, 23.98 tbn
      Metadata:
        encoder         : Lavc61.19.100 wrapped_avframe
  Stream #0:1: Audio: pcm_s16le, 48000 Hz, stereo, s16, 1536 kb/s (default)
      Metadata:
        HANDLER_NAME    : SoundHandler
        VENDOR_ID       : [0][0][0][0]
        _STATISTICS_TAGS: BPS DURATION NUMBER_OF_FRAMES NUMBER_OF_BYTES
        BPS             : 193194
        DURATION        : 00:24:06.784000000
        NUMBER_OF_FRAMES: 67819
        NUMBER_OF_BYTES : 34938755
        _STATISTICS_WRITING_APP: mkvpropedit v94.0 ('Initiate') 64-bit
        _STATISTICS_WRITING_DATE_UTC: 2026-01-11 16:06:40
        encoder         : Lavc61.19.100 pcm_s16le
frame=  132 fps=0.0 q=-0.0 size=N/A time=00:00:05.50 bitrate=N/A speed=10.8x    frame=  312 fps=306 q=-0.0 size=N/A time=00:00:13.01 bitrate=N/A speed=12.8x    frame=  505 fps=327 q=-0.0 size=N/A time=00:00:21.06 bitrate=N/A speed=13.6x    frame=  688 fps=335 q=-0.0 size=N/A time=00:00:28.69 bitrate=N/A speed=  14x    frame=  872 fps=340 q=-0.0 size=N/A time=00:00:36.36 bitrate=N/A speed=14.2x    frame= 1005 fps=326 q=-0.0 size=N/A time=00:00:41.91 bitrate=N/A speed=13.6x    frame= 1164 fps=323 q=-0.0 size=N/A time=00:00:48.54 bitrate=N/A speed=13.5x    frame= 1330 fps=323 q=-0.0 size=N/A time=00:00:55.47 bitrate=N/A speed=13.5x    frame= 1490 fps=322 q=-0.0 size=N/A time=00:01:02.14 bitrate=N/A speed=13.4x    frame= 1604 fps=312 q=-0.0 size=N/A time=00:01:06.90 bitrate=N/A speed=  13x    frame= 1750 fps=309 q=-0.0 size=N/A time=00:01:12.98 bitrate=N/A speed=12.9x    frame= 1914 fps=310 q=-0.0 size=N/A time=00:01:19.82 bitrate=N/A speed=12.9x    frame= 2059 fps=308 q=-0.0 size=N/A time=00:01:25.87 bitrate=N/A speed=12.8x    frame= 2186 fps=303 q=-0.0 size=N/A time=00:01:31.17 bitrate=N/A speed=12.7x    frame= 2351 fps=304 q=-0.0 size=N/A time=00:01:38.05 bitrate=N/A speed=12.7x    frame= 2477 fps=301 q=-0.0 size=N/A time=00:01:43.31 bitrate=N/A speed=12.5x    frame= 2626 fps=300 q=-0.0 size=N/A time=00:01:49.52 bitrate=N/A speed=12.5x    frame= 2791 fps=301 q=-0.0 size=N/A time=00:01:56.40 bitrate=N/A speed=12.6x    frame= 2969 fps=303 q=-0.0 size=N/A time=00:02:03.83 bitrate=N/A speed=12.6x    frame= 3144 fps=305 q=-0.0 size=N/A time=00:02:11.13 bitrate=N/A speed=12.7x    frame= 3323 fps=307 q=-0.0 size=N/A time=00:02:18.59 bitrate=N/A speed=12.8x    frame= 3507 fps=310 q=-0.0 size=N/A time=00:02:26.27 bitrate=N/A speed=12.9x    frame= 3686 fps=311 q=-0.0 size=N/A time=00:02:33.73 bitrate=N/A speed=  13x    frame= 3817 fps=309 q=-0.0 size=N/A time=00:02:39.20 bitrate=N/A speed=12.9x    frame= 4004 fps=311 q=-0.0 size=N/A time=00:02:47.00 bitrate=N/A speed=  13x    frame= 4187 fps=313 q=-0.0 size=N/A time=00:02:54.63 bitrate=N/A speed=  13x    frame= 4383 fps=315 q=-0.0 size=N/A time=00:03:02.80 bitrate=N/A speed=13.1x    frame= 4566 fps=316 q=-0.0 size=N/A time=00:03:10.44 bitrate=N/A speed=13.2x    frame= 4750 fps=318 q=-0.0 size=N/A time=00:03:18.11 bitrate=N/A speed=13.2x    frame= 4936 fps=319 q=-0.0 size=N/A time=00:03:25.87 bitrate=N/A speed=13.3x    frame= 5127 fps=321 q=-0.0 size=N/A time=00:03:33.83 bitrate=N/A speed=13.4x    frame= 5312 fps=322 q=-0.0 size=N/A time=00:03:41.55 bitrate=N/A speed=13.4x    frame= 5487 fps=323 q=-0.0 size=N/A time=00:03:48.85 bitrate=N/A speed=13.5x    frame= 5674 fps=324 q=-0.0 size=N/A time=00:03:56.65 bitrate=N/A speed=13.5x    frame= 5857 fps=325 q=-0.0 size=N/A time=00:04:04.28 bitrate=N/A speed=13.5x    frame= 6048 fps=326 q=-0.0 size=N/A time=00:04:12.25 bitrate=N/A speed=13.6x    frame= 6206 fps=325 q=-0.0 size=N/A time=00:04:18.84 bitrate=N/A speed=13.6x    frame= 6359 fps=325 q=-0.0 size=N/A time=00:04:25.22 bitrate=N/A speed=13.5x    frame= 6553 fps=326 q=-0.0 size=N/A time=00:04:33.31 bitrate=N/A speed=13.6x    frame= 6740 fps=327 q=-0.0 size=N/A time=00:04:41.11 bitrate=N/A speed=13.6x    frame= 6924 fps=327 q=-0.0 size=N/A time=00:04:48.78 bitrate=N/A speed=13.7x    frame= 7118 fps=328 q=-0.0 size=N/A time=00:04:56.87 bitrate=N/A speed=13.7x    frame= 7291 fps=329 q=-0.0 size=N/A time=00:05:04.09 bitrate=N/A speed=13.7x    frame= 7470 fps=329 q=-0.0 size=N/A time=00:05:11.56 bitrate=N/A speed=13.7x    frame= 7647 fps=329 q=-0.0 size=N/A time=00:05:18.94 bitrate=N/A speed=13.7x    frame= 7826 fps=330 q=-0.0 size=N/A time=00:05:26.40 bitrate=N/A speed=13.8x    frame= 8019 fps=331 q=-0.0 size=N/A time=00:05:34.45 bitrate=N/A speed=13.8x    frame= 8200 fps=331 q=-0.0 size=N/A time=00:05:42.00 bitrate=N/A speed=13.8x    frame= 8383 fps=332 q=-0.0 size=N/A time=00:05:49.64 bitrate=N/A speed=13.8x    frame= 8568 fps=332 q=-0.0 size=N/A time=00:05:57.35 bitrate=N/A speed=13.9x    frame= 8709 fps=331 q=-0.0 size=N/A time=00:06:03.23 bitrate=N/A speed=13.8x    frame= 8899 fps=332 q=-0.0 size=N/A time=00:06:11.16 bitrate=N/A speed=13.8x    frame= 9082 fps=332 q=-0.0 size=N/A time=00:06:18.79 bitrate=N/A speed=13.9x    frame= 9268 fps=333 q=-0.0 size=N/A time=00:06:26.55 bitrate=N/A speed=13.9x    frame= 9463 fps=334 q=-0.0 size=N/A time=00:06:34.68 bitrate=N/A speed=13.9x    frame= 9649 fps=334 q=-0.0 size=N/A time=00:06:42.44 bitrate=N/A speed=13.9x    frame= 9832 fps=334 q=-0.0 size=N/A time=00:06:50.07 bitrate=N/A speed=13.9x    frame=10020 fps=335 q=-0.0 size=N/A time=00:06:57.91 bitrate=N/A speed=  14x    frame=10122 fps=333 q=-0.0 size=N/A time=00:07:02.17 bitrate=N/A speed=13.9x    frame=10301 fps=333 q=-0.0 size=N/A time=00:07:09.63 bitrate=N/A speed=13.9x    frame=10474 fps=333 q=-0.0 size=N/A time=00:07:16.85 bitrate=N/A speed=13.9x    frame=10659 fps=333 q=-0.0 size=N/A time=00:07:24.56 bitrate=N/A speed=13.9x    frame=10845 fps=334 q=-0.0 size=N/A time=00:07:32.32 bitrate=N/A speed=13.9x    frame=11022 fps=334 q=-0.0 size=N/A time=00:07:39.70 bitrate=N/A speed=13.9x    frame=11203 fps=334 q=-0.0 size=N/A time=00:07:47.25 bitrate=N/A speed=13.9x    frame=11387 fps=335 q=-0.0 size=N/A time=00:07:54.93 bitrate=N/A speed=  14x    frame=11573 fps=335 q=-0.0 size=N/A time=00:08:02.69 bitrate=N/A speed=  14x    frame=11767 fps=335 q=-0.0 size=N/A time=00:08:10.78 bitrate=N/A speed=  14x    frame=11944 fps=336 q=-0.0 size=N/A time=00:08:18.16 bitrate=N/A speed=  14x    frame=12131 fps=336 q=-0.0 size=N/A time=00:08:25.96 bitrate=N/A speed=  14x    frame=12317 fps=336 q=-0.0 size=N/A time=00:08:33.72 bitrate=N/A speed=  14x    frame=12468 fps=336 q=-0.0 size=N/A time=00:08:40.01 bitrate=N/A speed=  14x    frame=12652 fps=336 q=-0.0 size=N/A time=00:08:47.69 bitrate=N/A speed=  14x    frame=12834 fps=336 q=-0.0 size=N/A time=00:08:55.28 bitrate=N/A speed=  14x    frame=13020 fps=337 q=-0.0 size=N/A time=00:09:03.04 bitrate=N/A speed=  14x    frame=13207 fps=337 q=-0.0 size=N/A time=00:09:10.84 bitrate=N/A speed=  14x    frame=13385 fps=337 q=-0.0 size=N/A time=00:09:18.26 bitrate=N/A speed=14.1x    frame=13561 fps=337 q=-0.0 size=N/A time=00:09:25.60 bitrate=N/A speed=14.1x    frame=13754 fps=337 q=-0.0 size=N/A time=00:09:33.65 bitrate=N/A speed=14.1x    frame=13937 fps=338 q=-0.0 size=N/A time=00:09:41.28 bitrate=N/A speed=14.1x    frame=14116 fps=338 q=-0.0 size=N/A time=00:09:48.75 bitrate=N/A speed=14.1x    frame=14299 fps=338 q=-0.0 size=N/A time=00:09:56.38 bitrate=N/A speed=14.1x    frame=14489 fps=338 q=-0.0 size=N/A time=00:10:04.31 bitrate=N/A speed=14.1x    frame=14670 fps=338 q=-0.0 size=N/A time=00:10:11.86 bitrate=N/A speed=14.1x    frame=14858 fps=339 q=-0.0 size=N/A time=00:10:19.70 bitrate=N/A speed=14.1x    frame=14985 fps=338 q=-0.0 size=N/A time=00:10:24.99 bitrate=N/A speed=14.1x    frame=15162 fps=338 q=-0.0 size=N/A time=00:10:32.38 bitrate=N/A speed=14.1x    frame=15337 fps=338 q=-0.0 size=N/A time=00:10:39.68 bitrate=N/A speed=14.1x    frame=15525 fps=338 q=-0.0 size=N/A time=00:10:47.52 bitrate=N/A speed=14.1x    frame=15704 fps=338 q=-0.0 size=N/A time=00:10:54.98 bitrate=N/A speed=14.1x    frame=15891 fps=338 q=-0.0 size=N/A time=00:11:02.78 bitrate=N/A speed=14.1x    frame=16072 fps=339 q=-0.0 size=N/A time=00:11:10.33 bitrate=N/A speed=14.1x    frame=16259 fps=339 q=-0.0 size=N/A time=00:11:18.13 bitrate=N/A speed=14.1x    frame=16430 fps=339 q=-0.0 size=N/A time=00:11:25.26 bitrate=N/A speed=14.1x    frame=16613 fps=339 q=-0.0 size=N/A time=00:11:32.90 bitrate=N/A speed=14.1x    frame=16789 fps=339 q=-0.0 size=N/A time=00:11:40.24 bitrate=N/A speed=14.1x    frame=16970 fps=339 q=-0.0 size=N/A time=00:11:47.79 bitrate=N/A speed=14.1x    frame=17143 fps=339 q=-0.0 size=N/A time=00:11:55.00 bitrate=N/A speed=14.1x    frame=17307 fps=339 q=-0.0 size=N/A time=00:12:01.84 bitrate=N/A speed=14.1x    frame=17474 fps=339 q=-0.0 size=N/A time=00:12:08.81 bitrate=N/A speed=14.1x    frame=17658 fps=339 q=-0.0 size=N/A time=00:12:16.48 bitrate=N/A speed=14.1x    frame=17838 fps=339 q=-0.0 size=N/A time=00:12:23.99 bitrate=N/A speed=14.1x    frame=18019 fps=339 q=-0.0 size=N/A time=00:12:31.54 bitrate=N/A speed=14.1x    frame=18211 fps=339 q=-0.0 size=N/A time=00:12:39.55 bitrate=N/A speed=14.2x    frame=18393 fps=340 q=-0.0 size=N/A time=00:12:47.14 bitrate=N/A speed=14.2x    frame=18584 fps=340 q=-0.0 size=N/A time=00:12:55.10 bitrate=N/A speed=14.2x    frame=18776 fps=340 q=-0.0 size=N/A time=00:13:03.11 bitrate=N/A speed=14.2x    frame=18968 fps=340 q=-0.0 size=N/A time=00:13:11.12 bitrate=N/A speed=14.2x    frame=19154 fps=341 q=-0.0 size=N/A time=00:13:18.88 bitrate=N/A speed=14.2x    frame=19344 fps=341 q=-0.0 size=N/A time=00:13:26.80 bitrate=N/A speed=14.2x    frame=19535 fps=341 q=-0.0 size=N/A time=00:13:34.77 bitrate=N/A speed=14.2x    frame=19729 fps=341 q=-0.0 size=N/A time=00:13:42.86 bitrate=N/A speed=14.2x    frame=19854 fps=341 q=-0.0 size=N/A time=00:13:48.07 bitrate=N/A speed=14.2x    frame=20042 fps=341 q=-0.0 size=N/A time=00:13:55.91 bitrate=N/A speed=14.2x    frame=20223 fps=341 q=-0.0 size=N/A time=00:14:03.46 bitrate=N/A speed=14.2x    frame=20404 fps=341 q=-0.0 size=N/A time=00:14:11.01 bitrate=N/A speed=14.2x    frame=20580 fps=341 q=-0.0 size=N/A time=00:14:18.35 bitrate=N/A speed=14.2x    frame=20768 fps=341 q=-0.0 size=N/A time=00:14:26.19 bitrate=N/A speed=14.2x    frame=20948 fps=341 q=-0.0 size=N/A time=00:14:33.70 bitrate=N/A speed=14.2x    frame=21140 fps=341 q=-0.0 size=N/A time=00:14:41.71 bitrate=N/A speed=14.2x    frame=21321 fps=342 q=-0.0 size=N/A time=00:14:49.26 bitrate=N/A speed=14.2x    frame=21512 fps=342 q=-0.0 size=N/A time=00:14:57.22 bitrate=N/A speed=14.3x    frame=21698 fps=342 q=-0.0 size=N/A time=00:15:04.98 bitrate=N/A speed=14.3x    frame=21884 fps=342 q=-0.0 size=N/A time=00:15:12.74 bitrate=N/A speed=14.3x    frame=22070 fps=342 q=-0.0 size=N/A time=00:15:20.50 bitrate=N/A speed=14.3x    frame=22239 fps=342 q=-0.0 size=N/A time=00:15:27.55 bitrate=N/A speed=14.3x    frame=22406 fps=342 q=-0.0 size=N/A time=00:15:34.51 bitrate=N/A speed=14.3x    frame=22598 fps=342 q=-0.0 size=N/A time=00:15:42.52 bitrate=N/A speed=14.3x    frame=22779 fps=342 q=-0.0 size=N/A time=00:15:50.07 bitrate=N/A speed=14.3x    frame=22964 fps=342 q=-0.0 size=N/A time=00:15:57.79 bitrate=N/A speed=14.3x    frame=23154 fps=343 q=-0.0 size=N/A time=00:16:05.71 bitrate=N/A speed=14.3x    frame=23335 fps=343 q=-0.0 size=N/A time=00:16:13.26 bitrate=N/A speed=14.3x    frame=23518 fps=343 q=-0.0 size=N/A time=00:16:20.89 bitrate=N/A speed=14.3x    frame=23706 fps=343 q=-0.0 size=N/A time=00:16:28.73 bitrate=N/A speed=14.3x    frame=23896 fps=343 q=-0.0 size=N/A time=00:16:36.66 bitrate=N/A speed=14.3x    frame=24087 fps=343 q=-0.0 size=N/A time=00:16:44.62 bitrate=N/A speed=14.3x    frame=24265 fps=343 q=-0.0 size=N/A time=00:16:52.05 bitrate=N/A speed=14.3x    frame=24459 fps=344 q=-0.0 size=N/A time=00:17:00.14 bitrate=N/A speed=14.3x    frame=24648 fps=344 q=-0.0 size=N/A time=00:17:08.02 bitrate=N/A speed=14.3x    frame=24786 fps=343 q=-0.0 size=N/A time=00:17:13.78 bitrate=N/A speed=14.3x    frame=24967 fps=343 q=-0.0 size=N/A time=00:17:21.33 bitrate=N/A speed=14.3x    frame=25150 fps=343 q=-0.0 size=N/A time=00:17:28.96 bitrate=N/A speed=14.3x    frame=25340 fps=343 q=-0.0 size=N/A time=00:17:36.88 bitrate=N/A speed=14.3x    frame=25522 fps=344 q=-0.0 size=N/A time=00:17:44.48 bitrate=N/A speed=14.3x    frame=25710 fps=344 q=-0.0 size=N/A time=00:17:52.32 bitrate=N/A speed=14.3x    frame=25904 fps=344 q=-0.0 size=N/A time=00:18:00.41 bitrate=N/A speed=14.3x    frame=26087 fps=344 q=-0.0 size=N/A time=00:18:08.04 bitrate=N/A speed=14.3x    frame=26277 fps=344 q=-0.0 size=N/A time=00:18:15.96 bitrate=N/A speed=14.4x    frame=26470 fps=344 q=-0.0 size=N/A time=00:18:24.01 bitrate=N/A speed=14.4x    frame=26661 fps=345 q=-0.0 size=N/A time=00:18:31.98 bitrate=N/A speed=14.4x    frame=26847 fps=345 q=-0.0 size=N/A time=00:18:39.74 bitrate=N/A speed=14.4x    frame=27024 fps=345 q=-0.0 size=N/A time=00:18:47.12 bitrate=N/A speed=14.4x    frame=27205 fps=345 q=-0.0 size=N/A time=00:18:54.67 bitrate=N/A speed=14.4x    frame=27348 fps=344 q=-0.0 size=N/A time=00:19:00.63 bitrate=N/A speed=14.4x    frame=27531 fps=344 q=-0.0 size=N/A time=00:19:08.27 bitrate=N/A speed=14.4x    frame=27705 fps=344 q=-0.0 size=N/A time=00:19:15.52 bitrate=N/A speed=14.4x    frame=27894 fps=344 q=-0.0 size=N/A time=00:19:23.41 bitrate=N/A speed=14.4x    frame=28071 fps=344 q=-0.0 size=N/A time=00:19:30.79 bitrate=N/A speed=14.4x    frame=28250 fps=344 q=-0.0 size=N/A time=00:19:38.26 bitrate=N/A speed=14.4x    frame=28427 fps=344 q=-0.0 size=N/A time=00:19:45.64 bitrate=N/A speed=14.4x    frame=28622 fps=345 q=-0.0 size=N/A time=00:19:53.77 bitrate=N/A speed=14.4x    frame=28799 fps=345 q=-0.0 size=N/A time=00:20:01.15 bitrate=N/A speed=14.4x    frame=28971 fps=345 q=-0.0 size=N/A time=00:20:08.33 bitrate=N/A speed=14.4x    frame=29142 fps=344 q=-0.0 size=N/A time=00:20:15.46 bitrate=N/A speed=14.4x    frame=29328 fps=345 q=-0.0 size=N/A time=00:20:23.22 bitrate=N/A speed=14.4x    frame=29502 fps=345 q=-0.0 size=N/A time=00:20:30.47 bitrate=N/A speed=14.4x    frame=29645 fps=344 q=-0.0 size=N/A time=00:20:36.44 bitrate=N/A speed=14.4x    frame=29799 fps=344 q=-0.0 size=N/A time=00:20:42.86 bitrate=N/A speed=14.3x    frame=29977 fps=344 q=-0.0 size=N/A time=00:20:50.29 bitrate=N/A speed=14.3x    frame=30141 fps=344 q=-0.0 size=N/A time=00:20:57.13 bitrate=N/A speed=14.3x    frame=30322 fps=344 q=-0.0 size=N/A time=00:21:04.68 bitrate=N/A speed=14.3x    frame=30508 fps=344 q=-0.0 size=N/A time=00:21:12.43 bitrate=N/A speed=14.3x    frame=30690 fps=344 q=-0.0 size=N/A time=00:21:20.02 bitrate=N/A speed=14.3x    frame=30875 fps=344 q=-0.0 size=N/A time=00:21:27.74 bitrate=N/A speed=14.3x    frame=30997 fps=343 q=-0.0 size=N/A time=00:21:32.83 bitrate=N/A speed=14.3x    frame=31140 fps=343 q=-0.0 size=N/A time=00:21:38.79 bitrate=N/A speed=14.3x    frame=31318 fps=343 q=-0.0 size=N/A time=00:21:46.22 bitrate=N/A speed=14.3x    frame=31503 fps=343 q=-0.0 size=N/A time=00:21:53.93 bitrate=N/A speed=14.3x    frame=31686 fps=343 q=-0.0 size=N/A time=00:22:01.57 bitrate=N/A speed=14.3x    frame=31866 fps=343 q=-0.0 size=N/A time=00:22:09.07 bitrate=N/A speed=14.3x    frame=32036 fps=343 q=-0.0 size=N/A time=00:22:16.16 bitrate=N/A speed=14.3x    frame=32218 fps=343 q=-0.0 size=N/A time=00:22:23.75 bitrate=N/A speed=14.3x    frame=32401 fps=343 q=-0.0 size=N/A time=00:22:31.39 bitrate=N/A speed=14.3x    frame=32595 fps=343 q=-0.0 size=N/A time=00:22:39.48 bitrate=N/A speed=14.3x    frame=32751 fps=343 q=-0.0 size=N/A time=00:22:45.98 bitrate=N/A speed=14.3x    frame=32909 fps=343 q=-0.0 size=N/A time=00:22:52.57 bitrate=N/A speed=14.3x    frame=33086 fps=343 q=-0.0 size=N/A time=00:22:59.96 bitrate=N/A speed=14.3x    frame=33264 fps=343 q=-0.0 size=N/A time=00:23:07.38 bitrate=N/A speed=14.3x    frame=33404 fps=343 q=-0.0 size=N/A time=00:23:13.22 bitrate=N/A speed=14.3x    frame=33567 fps=342 q=-0.0 size=N/A time=00:23:20.02 bitrate=N/A speed=14.3x    frame=33724 fps=342 q=-0.0 size=N/A time=00:23:26.57 bitrate=N/A speed=14.3x    frame=33852 fps=342 q=-0.0 size=N/A time=00:23:31.91 bitrate=N/A speed=14.3x    frame=34006 fps=342 q=-0.0 size=N/A time=00:23:38.33 bitrate=N/A speed=14.2x    frame=34170 fps=341 q=-0.0 size=N/A time=00:23:45.17 bitrate=N/A speed=14.2x    frame=34317 fps=341 q=-0.0 size=N/A time=00:23:51.30 bitrate=N/A speed=14.2x    frame=34460 fps=341 q=-0.0 size=N/A time=00:23:57.26 bitrate=N/A speed=14.2x    frame=34639 fps=341 q=-0.0 size=N/A time=00:24:04.73 bitrate=N/A speed=14.2x    [Parsed_ssim_16 @ 000001dcc1455a40] SSIM Y:0.993812 (22.084781) U:0.993979 (22.203123) V:0.993581 (21.925408) All:0.993802 (22.077189)
[out#0/null @ 000001dcb4308a00] video:14903KiB audio:271276KiB subtitle:0KiB other streams:0KiB global headers:0KiB muxing overhead: unknown
frame=34683 fps=341 q=-0.0 Lsize=N/A time=00:24:06.57 bitrate=N/A speed=14.2x    
